# Walk of Industry IO arrow
# Origin at socket. +Z = tip. Drop as child, local rotation 0.
o io_arrow
v -0.09000 0.00000 -0.04000
v 0.09000 0.00000 -0.04000
v 0.09000 0.00000 0.20000
v 0.24000 0.00000 0.16000
v 0.00000 0.00000 0.56000
v -0.24000 0.00000 0.16000
v -0.09000 0.00000 0.20000
v -0.09000 0.09000 -0.04000
v 0.09000 0.09000 -0.04000
v 0.09000 0.09000 0.20000
v 0.24000 0.09000 0.16000
v 0.00000 0.09000 0.56000
v -0.24000 0.09000 0.16000
v -0.09000 0.09000 0.20000
f 8 10 9
f 8 14 10
f 10 12 11
f 14 12 10
f 14 13 12
f 1 2 3
f 1 3 7
f 3 4 5
f 7 3 5
f 7 5 6
f 1 8 9
f 1 9 2
f 2 9 10
f 2 10 3
f 3 10 11
f 3 11 4
f 4 11 12
f 4 12 5
f 5 12 13
f 5 13 6
f 6 13 14
f 6 14 7
f 7 14 8
f 7 8 1
